<?xml version="1.0" standalone="no"?>
<!DOCTYPE svg PUBLIC "-//W3C//DTD SVG 20010904//EN"
 "http://www.w3.org/TR/2001/REC-SVG-20010904/DTD/svg10.dtd">
<svg version="1.0" xmlns="http://www.w3.org/2000/svg"
 width="612.000000pt" height="612.000000pt" viewBox="0 0 612.000000 612.000000"
 preserveAspectRatio="xMidYMid meet">
<metadata>
Created by potrace 1.10, written by Peter Selinger 2001-2011
</metadata>
<g transform="translate(0.000000,612.000000) scale(0.100000,-0.100000)"
fill="#000000" stroke="none">
<path d="M5795 6023 c-16 -9 -41 -25 -54 -37 -35 -32 -107 -128 -116 -155 -4
-13 -21 -40 -39 -60 -38 -44 -76 -97 -77 -108 0 -4 -25 -42 -55 -83 -30 -41
-67 -95 -82 -119 -15 -25 -37 -55 -49 -67 -13 -12 -23 -24 -23 -27 0 -11 -63
-101 -96 -139 -18 -20 -43 -56 -55 -80 -11 -24 -34 -57 -51 -74 -16 -17 -44
-52 -61 -77 -18 -26 -50 -72 -72 -104 -35 -51 -63 -89 -139 -184 -10 -13 -33
-47 -51 -74 -18 -28 -40 -57 -49 -64 -9 -7 -16 -19 -16 -26 0 -7 -20 -34 -45
-59 -25 -26 -45 -51 -45 -56 0 -4 -15 -28 -33 -52 -18 -24 -49 -69 -70 -100
-20 -31 -48 -65 -61 -75 -12 -10 -48 -57 -78 -103 -30 -47 -73 -105 -96 -130
-23 -24 -42 -47 -42 -51 0 -3 -16 -26 -35 -50 -19 -24 -35 -49 -35 -54 0 -6
-18 -31 -41 -55 -23 -24 -48 -55 -57 -69 -9 -15 -44 -60 -78 -101 -33 -41 -64
-87 -67 -103 -4 -15 -12 -27 -17 -27 -6 0 -10 -7 -10 -15 0 -8 3 -15 8 -15 10
0 72 65 72 77 0 5 10 19 23 30 12 12 33 39 46 62 27 45 30 47 95 56 33 5 46 4
46 -5 0 -18 -49 -81 -112 -141 -32 -32 -58 -61 -58 -67 0 -5 -7 -16 -16 -23
-9 -8 -27 -30 -40 -51 -13 -20 -33 -39 -44 -43 -17 -5 -20 -14 -18 -38 2 -26
10 -35 39 -49 22 -10 41 -29 49 -48 15 -36 51 -48 86 -30 13 7 27 23 30 34 11
36 68 116 86 122 9 3 20 13 23 24 6 20 91 141 123 177 11 12 24 32 28 45 3 13
19 39 34 58 42 54 76 112 84 143 7 30 -4 36 -24 12 -14 -17 -40 -20 -40 -5 0
23 24 58 51 74 16 9 36 31 44 47 9 16 20 27 25 24 15 -9 12 -52 -4 -58 -17 -7
-27 -45 -15 -53 6 -3 15 8 22 25 6 17 15 31 20 31 4 0 16 17 25 38 9 20 36 57
60 81 23 24 42 48 42 54 0 26 50 107 99 157 48 50 63 71 110 159 8 14 20 31
27 36 7 6 18 22 23 37 6 16 24 36 40 46 38 23 63 56 85 111 12 32 14 47 5 57
-16 19 -1 38 18 22 16 -13 32 2 70 65 10 15 25 30 35 33 23 7 57 56 69 99 6
20 36 63 72 100 57 61 79 91 123 170 9 17 23 34 30 38 8 4 14 14 14 22 0 7 17
28 38 47 35 31 82 104 82 130 0 5 25 36 55 67 74 76 103 113 120 155 9 20 24
42 35 48 11 7 20 17 20 23 1 5 29 43 64 84 75 87 94 136 71 181 -8 16 -25 35
-38 41 -12 7 -24 15 -27 19 -10 14 -83 60 -94 59 -6 -1 -24 -8 -41 -16z m65
-88 c22 -27 -35 -135 -88 -166 -16 -9 -28 -26 -30 -42 -2 -14 -10 -31 -18 -37
-8 -7 -14 -18 -14 -24 0 -6 -25 -33 -56 -61 -31 -27 -67 -72 -81 -100 -14 -27
-42 -70 -63 -95 -20 -25 -45 -60 -56 -78 -10 -17 -26 -35 -36 -38 -10 -3 -26
-25 -37 -48 -10 -24 -35 -61 -55 -83 -20 -22 -36 -45 -36 -51 0 -20 -39 -35
-56 -21 -24 20 -16 58 25 113 43 57 74 82 112 88 21 3 24 7 21 40 -4 49 30
107 108 186 33 33 60 69 60 79 0 10 30 59 68 108 37 50 85 117 106 150 22 33
46 68 54 78 18 21 55 22 72 2z m-670 -918 c0 -18 -42 -91 -61 -107 -3 -3 -11
-15 -18 -27 -14 -27 -58 -31 -68 -7 -9 25 26 81 81 130 52 45 66 47 66 11z
m-167 -224 c6 -10 -61 -124 -87 -148 -6 -5 -19 -22 -29 -37 -24 -39 -67 -39
-67 -1 0 73 156 231 183 186z m-200 -279 c19 -19 -151 -218 -178 -208 -8 3
-15 14 -15 24 0 20 89 144 124 172 21 17 57 24 69 12z m-229 -310 c10 -26 -87
-135 -131 -148 -19 -6 -23 -4 -23 16 1 30 17 57 63 107 40 43 80 54 91 25z
m-184 -250 c0 -17 -17 -43 -50 -78 -27 -29 -50 -58 -50 -63 0 -12 -85 -93 -98
-93 -15 0 -32 24 -32 45 0 12 27 47 65 85 36 35 65 69 65 75 1 13 60 53 83 54
12 1 17 -7 17 -25z m-108 -309 c-12 -22 -27 -2 -18 22 5 12 10 13 17 6 7 -7 8
-17 1 -28z"/>
<path d="M3840 3361 c0 -17 18 -21 24 -6 3 9 0 15 -9 15 -8 0 -15 -4 -15 -9z"/>
<path d="M3817 3170 c-10 -16 -28 -35 -40 -41 -27 -15 -37 -28 -37 -54 0 -11
-10 -25 -22 -30 -27 -12 -37 -45 -14 -45 9 0 22 11 28 25 12 26 54 35 74 15 8
-8 26 3 59 35 l48 46 -20 22 c-11 12 -23 30 -26 40 -9 26 -31 21 -50 -13z"/>
<path d="M3960 3119 c-7 -11 -19 -29 -28 -40 -27 -31 -84 -95 -116 -128 -17
-18 -26 -36 -23 -45 4 -9 -4 -28 -17 -43 -13 -16 -31 -45 -39 -65 -13 -31 -21
-38 -59 -45 -37 -7 -43 -12 -46 -36 -3 -23 0 -27 19 -24 14 1 24 -4 26 -14 5
-22 -39 -69 -64 -69 -16 0 -23 -8 -28 -30 -5 -22 -12 -30 -28 -30 -21 0 -97
-44 -97 -56 0 -3 8 -19 17 -35 16 -27 16 -29 -4 -51 -11 -13 -24 -33 -28 -46
-3 -12 -20 -29 -36 -37 -23 -12 -29 -22 -29 -49 0 -39 -28 -69 -67 -70 -25 -1
-48 -26 -23 -26 17 0 2 -37 -36 -87 -19 -25 -34 -53 -34 -63 0 -10 -8 -25 -18
-32 -10 -7 -32 -37 -48 -65 -16 -29 -34 -53 -41 -53 -6 0 -14 -8 -17 -18 -4
-10 -22 -26 -42 -35 -31 -15 -34 -20 -23 -33 11 -13 10 -19 -8 -32 -11 -10
-24 -27 -28 -40 -3 -12 -17 -30 -31 -38 -13 -9 -24 -24 -24 -34 0 -25 -27 -51
-45 -44 -10 4 -15 0 -15 -15 0 -11 -20 -41 -45 -67 -25 -25 -45 -53 -45 -62 0
-35 -51 -103 -90 -118 -30 -12 -40 -22 -42 -42 -3 -29 -38 -45 -38 -18 0 9 -4
16 -10 16 -15 0 -13 -6 14 -49 25 -38 25 -61 0 -40 -9 7 -16 3 -27 -18 -43
-82 -64 -113 -83 -122 -16 -7 -20 -16 -17 -35 5 -22 -7 -37 -72 -100 -67 -63
-77 -77 -72 -99 9 -35 -34 -78 -77 -74 l-31 2 3 -46 c3 -42 1 -49 -27 -68 -20
-14 -34 -37 -42 -64 -10 -39 -12 -40 -25 -22 -16 21 -15 22 -67 -56 -20 -30
-37 -65 -37 -77 0 -16 -13 -28 -52 -46 -48 -23 -53 -24 -65 -8 -12 16 -12 16
-13 0 0 -9 4 -20 10 -23 15 -9 12 -45 -3 -45 -7 0 -18 5 -24 11 -13 13 -68 -9
-100 -40 -12 -11 -34 -21 -48 -21 -14 0 -33 -9 -42 -20 -21 -24 -39 -26 -51
-4 -10 17 -52 12 -52 -7 0 -13 -76 -11 -135 4 -39 10 -51 18 -53 36 -3 16 -8
20 -22 16 -10 -3 -21 -1 -25 5 -8 13 16 70 30 71 5 0 -3 5 -20 10 -24 7 -33 5
-43 -9 -12 -16 -15 -15 -33 7 -26 32 -22 78 6 72 41 -7 49 -6 53 12 4 19 -14
47 -29 47 -5 0 -17 -9 -26 -19 -15 -19 -17 -19 -29 -3 -16 21 -18 78 -3 88 10
6 8 38 -6 94 -5 20 2 39 29 80 20 30 36 60 36 66 0 7 20 20 44 29 60 23 96 7
141 -60 32 -47 33 -51 18 -74 -9 -13 -17 -50 -18 -83 l-3 -59 46 -35 c25 -19
56 -37 69 -40 29 -8 81 13 93 37 6 10 20 21 32 24 28 9 88 64 88 82 0 16 42
76 102 145 25 29 49 65 53 80 4 14 18 36 31 49 13 12 24 28 24 36 0 7 20 34
45 60 25 25 45 54 45 63 0 16 9 30 60 94 14 17 40 54 59 81 19 28 45 61 58 75
13 14 41 50 63 80 22 30 46 62 54 70 17 18 66 89 66 96 0 8 43 67 76 104 17
19 41 53 54 75 13 22 42 61 64 86 23 26 67 82 99 125 32 44 87 115 122 159 36
44 65 85 65 91 0 5 16 28 36 50 20 21 40 48 45 59 10 22 23 45 51 86 9 15 20
39 24 53 3 14 12 26 20 26 7 0 24 15 36 34 13 19 51 64 83 101 33 37 74 87 90
110 17 23 56 76 88 117 60 80 73 113 37 100 -12 -4 -28 -19 -38 -34 -41 -61
-104 -138 -121 -148 -11 -5 -22 -19 -26 -30 -6 -20 -104 -150 -167 -222 -17
-21 -43 -55 -57 -76 -87 -131 -102 -152 -110 -152 -5 0 -25 -27 -46 -59 -20
-33 -43 -62 -51 -65 -8 -3 -14 -12 -14 -21 0 -9 -29 -50 -64 -93 -35 -42 -80
-103 -100 -135 -21 -32 -44 -61 -52 -64 -8 -3 -14 -9 -14 -14 0 -5 -28 -46
-62 -90 -77 -99 -148 -198 -148 -205 0 -3 -29 -42 -65 -86 -36 -45 -65 -87
-65 -94 0 -7 -13 -22 -30 -34 -16 -12 -30 -27 -30 -34 0 -8 -7 -19 -16 -27 -8
-7 -32 -38 -52 -68 -20 -31 -42 -62 -49 -69 -7 -7 -13 -20 -13 -28 0 -8 -4
-14 -10 -14 -5 0 -16 -13 -24 -29 -9 -16 -29 -43 -46 -59 -16 -17 -30 -37 -30
-44 0 -8 -11 -25 -25 -38 -14 -13 -25 -29 -25 -36 0 -6 -10 -18 -23 -27 -13
-8 -31 -33 -42 -56 -10 -23 -22 -41 -26 -41 -9 0 -49 -55 -79 -109 -32 -54
-93 -101 -134 -101 -7 0 -25 9 -40 21 l-26 20 30 57 c34 64 37 102 14 157 -33
80 -113 135 -196 135 -86 0 -237 -134 -238 -211 0 -13 -7 -33 -15 -43 -19 -26
-19 -77 1 -124 9 -20 17 -61 19 -91 4 -54 33 -109 105 -195 37 -44 139 -116
165 -116 12 0 39 -7 58 -15 23 -9 68 -15 120 -15 69 0 89 4 110 20 16 12 40
20 65 20 78 0 226 126 367 311 39 51 82 107 98 124 15 18 27 36 27 39 0 7 49
77 61 86 3 3 22 28 40 56 19 28 64 91 102 139 37 48 67 94 67 101 0 7 6 17 14
21 16 9 36 36 112 148 26 39 63 87 81 108 18 20 33 41 33 47 0 5 11 21 25 36
14 15 25 35 25 45 0 10 5 21 10 24 15 9 120 143 120 153 0 4 15 26 33 48 18
21 48 62 66 91 19 29 40 54 47 57 8 3 19 17 24 32 6 15 35 62 65 104 30 43 55
82 55 87 0 6 9 18 21 29 12 10 42 50 67 89 26 38 63 91 84 116 21 26 38 53 38
61 0 8 9 23 20 33 18 16 79 100 105 144 6 9 24 35 41 56 17 22 46 67 64 100
18 33 44 72 56 88 13 15 37 55 54 90 18 34 46 78 64 97 18 19 44 58 58 85 14
28 33 64 43 81 10 17 16 38 12 47 -9 24 -44 21 -57 -4z m-410 -623 c0 -8 -5
-18 -11 -22 -14 -8 -33 11 -25 25 10 16 36 13 36 -3z"/>
<path d="M3650 3110 c-9 -16 -8 -20 5 -20 8 0 15 9 15 20 0 11 -2 20 -5 20 -2
0 -9 -9 -15 -20z"/>
<path d="M3595 3050 c-7 -23 2 -43 16 -35 12 8 12 55 0 55 -5 0 -12 -9 -16
-20z"/>
<path d="M3533 2975 c-3 -9 -3 -18 0 -21 9 -9 27 6 27 22 0 19 -19 18 -27 -1z"/>
<path d="M3637 2984 c-4 -4 -7 -14 -7 -22 0 -8 -15 -32 -32 -52 -67 -77 -80
-94 -101 -133 -56 -102 -110 -178 -155 -218 -23 -20 -44 -48 -47 -62 -4 -13
-20 -34 -36 -46 -16 -12 -29 -28 -29 -36 0 -8 -12 -22 -26 -31 -14 -10 -34
-35 -46 -58 -11 -23 -28 -49 -37 -59 -8 -11 -16 -25 -16 -33 0 -15 -58 -92
-110 -148 -34 -36 -49 -61 -59 -99 -4 -18 -13 -27 -27 -27 -12 0 -26 -12 -37
-32 -9 -17 -41 -56 -69 -87 -33 -33 -53 -63 -53 -77 0 -14 -12 -32 -30 -45
-16 -13 -35 -37 -41 -56 -6 -18 -19 -38 -29 -43 -10 -6 -22 -20 -26 -32 -7
-23 -66 -106 -102 -143 -10 -11 -25 -31 -32 -45 -7 -14 -19 -29 -26 -33 -8 -4
-14 -19 -14 -32 0 -20 5 -25 26 -25 18 0 28 6 31 21 3 11 16 25 29 30 17 6 24
16 24 35 0 17 6 28 20 31 16 4 20 14 20 43 0 32 4 39 25 44 14 4 33 19 43 34
22 36 70 97 105 134 15 16 27 39 27 51 1 12 7 36 14 52 l14 30 11 -28 c6 -16
15 -25 21 -22 13 8 13 52 0 60 -5 3 -10 13 -10 22 0 13 2 13 16 2 15 -12 19
-10 33 11 8 14 33 41 53 60 21 20 38 45 38 57 0 29 39 87 71 105 17 10 31 33
43 72 16 51 23 59 57 73 27 10 39 21 39 35 0 23 53 103 74 111 13 5 36 35 81
106 6 9 25 32 42 51 18 19 42 50 55 69 13 20 36 38 52 42 39 11 48 27 29 56
-20 30 -10 53 21 53 27 0 42 15 26 25 -5 3 -10 16 -10 28 1 21 1 22 15 3 8
-11 16 -18 18 -15 2 2 11 16 20 32 14 22 25 27 55 27 65 0 88 52 33 71 -22 8
-31 18 -33 37 -3 26 -26 40 -41 26z"/>
<path d="M3362 2380 c0 -19 2 -27 5 -17 2 9 2 25 0 35 -3 9 -5 1 -5 -18z"/>
<path d="M3207 2152 c-22 -24 -21 -32 1 -32 18 0 52 29 52 43 0 14 -38 6 -53
-11z"/>
<path d="M2910 1701 c0 -12 5 -21 10 -21 6 0 10 6 10 14 0 8 -4 18 -10 21 -5
3 -10 -3 -10 -14z"/>
<path d="M2397 1303 c-4 -3 -7 -15 -7 -25 0 -10 -17 -35 -39 -56 -21 -20 -41
-47 -45 -59 -4 -11 -13 -27 -21 -33 -8 -7 -15 -21 -15 -31 0 -10 -9 -24 -20
-31 -14 -9 -18 -19 -13 -36 3 -13 -2 -41 -13 -63 -15 -34 -21 -39 -41 -34 -19
4 -23 2 -23 -20 0 -15 6 -25 15 -25 27 0 82 59 100 107 9 27 26 56 37 66 24
21 58 80 58 102 0 20 10 19 26 -2 24 -31 43 7 42 83 -1 53 -4 64 -18 64 -9 0
-20 -3 -23 -7z"/>
<path d="M465 1001 c-3 -6 -18 -11 -33 -11 -33 0 -122 -40 -142 -64 -8 -10
-24 -22 -37 -27 -15 -6 -23 -17 -23 -33 0 -17 -7 -26 -25 -30 -15 -4 -31 -19
-40 -39 -8 -17 -25 -48 -38 -67 -20 -32 -22 -47 -22 -165 0 -107 3 -137 19
-170 10 -22 25 -44 32 -48 8 -4 14 -13 14 -18 0 -19 78 -100 124 -129 24 -16
76 -40 116 -54 158 -57 308 -20 454 112 70 65 95 99 96 136 0 11 9 39 21 63
18 37 20 58 17 136 -2 78 -8 102 -30 146 -16 29 -28 59 -28 67 0 8 -7 17 -15
20 -8 3 -23 21 -34 40 -12 19 -37 41 -58 51 -21 9 -49 27 -63 39 -14 12 -45
27 -70 34 -59 17 -226 25 -235 11z m161 -60 c16 -5 45 -12 65 -15 46 -8 169
-103 169 -131 0 -10 11 -28 25 -40 20 -15 27 -33 32 -75 3 -30 10 -61 15 -67
7 -9 3 -16 -17 -23 -20 -8 -25 -15 -20 -30 4 -11 -4 -38 -20 -67 -14 -26 -28
-65 -32 -86 -3 -24 -14 -44 -28 -53 -13 -8 -25 -24 -28 -36 -5 -16 -12 -20
-36 -16 -23 3 -32 0 -40 -19 -6 -13 -19 -23 -30 -23 -10 0 -35 -7 -54 -15 -48
-20 -113 -20 -121 0 -8 22 -36 18 -36 -4 0 -29 -14 -33 -62 -20 -54 14 -168
80 -168 97 0 6 -9 21 -20 32 -11 11 -20 25 -20 31 0 7 -11 22 -24 34 -24 22
-25 27 -22 132 3 93 7 115 29 160 15 28 31 54 37 58 5 3 10 17 10 31 0 14 7
27 18 31 9 4 41 24 71 46 29 22 76 45 103 53 28 7 53 15 56 18 9 9 116 7 148
-3z"/>
<path d="M2102 858 c2 -15 10 -23 22 -23 29 0 30 20 1 33 -25 11 -26 11 -23
-10z"/>
<path d="M1446 762 c-8 -13 19 -88 30 -84 5 1 9 21 9 44 0 32 -4 44 -17 46 -9
2 -19 -1 -22 -6z"/>
<path d="M2150 729 c0 -52 24 -48 28 4 2 28 -1 37 -12 37 -12 0 -16 -11 -16
-41z"/>
<path d="M2037 584 c-8 -8 1 -24 14 -24 5 0 9 7 9 15 0 15 -12 20 -23 9z"/>
<path d="M1874 444 c3 -9 6 -18 6 -20 0 -2 9 -4 21 -4 15 0 19 4 15 16 -3 9
-6 18 -6 20 0 2 -9 4 -21 4 -15 0 -19 -4 -15 -16z"/>
<path d="M1720 330 c0 -5 6 -10 14 -10 8 0 18 5 21 10 3 6 -3 10 -14 10 -12 0
-21 -4 -21 -10z"/>
<path d="M1435 310 c-3 -5 3 -10 15 -10 12 0 18 5 15 10 -3 6 -10 10 -15 10
-5 0 -12 -4 -15 -10z"/>
</g>
</svg>
