<?xml version="1.0" encoding="utf-8"?>
<!-- Generator: Adobe Illustrator 15.0.3, SVG Export Plug-In . SVG Version: 6.00 Build 0)  -->
<!DOCTYPE svg PUBLIC "-//W3C//DTD SVG 1.1//EN" "http://www.w3.org/Graphics/SVG/1.1/DTD/svg11.dtd">
<svg version="1.1"
	 id="svg7393" xmlns:inkscape="http://www.inkscape.org/namespaces/inkscape" inkscape:version="0.91 r13725" sodipodi:docname="Indian Election Symbol Mango SVG.svg" xmlns:sodipodi="http://sodipodi.sourceforge.net/DTD/sodipodi-0.dtd" xmlns:rdf="http://www.w3.org/1999/02/22-rdf-syntax-ns#" xmlns:svg="http://www.w3.org/2000/svg" xmlns:cc="http://creativecommons.org/ns#" xmlns:dc="http://purl.org/dc/elements/1.1/"
	 xmlns="http://www.w3.org/2000/svg" xmlns:xlink="http://www.w3.org/1999/xlink" x="0px" y="0px" width="370px" height="364px"
	 viewBox="-9.104 -10.514 370 364" enable-background="new -9.104 -10.514 370 364" xml:space="preserve">
<sodipodi:namedview  bordercolor="#666666" pagecolor="#ffffff" id="base" borderopacity="1.0" inkscape:pageopacity="0.0" inkscape:zoom="0.98994949" inkscape:pageshadow="2" inkscape:cx="300.83836" inkscape:cy="229.56917" inkscape:document-units="px" inkscape:current-layer="svg7393" showgrid="false" fit-margin-top="0" fit-margin-left="0" fit-margin-right="0" fit-margin-bottom="0" inkscape:window-width="1920" inkscape:window-height="1137" inkscape:window-x="-8" inkscape:window-y="-8" inkscape:window-maximized="1">
	</sodipodi:namedview>
<g id="layer6" transform="translate(-45.366952,-27.494064)" inkscape:groupmode="layer" inkscape:label="Layer 2">
	<path id="path7413" inkscape:connector-curvature="0" sodipodi:nodetypes="ssssssssssssssssssssssssssss" d="M209.438,109.46
		c0.136,4.038,4.516,6.149,6.953,4.921c30.569-15.408,65.27-1.298,83.865,19.134c53.717,59.02,43.472,154.229-33.283,202.85
		c-21.278,13.479-50.204,24.21-72.779,23.339c-8.928-0.344-5.354-5.168-4.487-10.566c0.777-4.852,0.987-11.133-3.164-16.346
		c-16.004-20.095-34.036-33.457-48.614-51.675s-25.914-41.133-29.224-73.257c-3.479-33.776,7.529-63.605,26.02-81.586
		c18.491-17.981,54.528-24.536,64.793-13.618c5.741,6.106,11.795-4.226,3.256-8.319c-25.204-12.082-56.924-0.05-73.312,15.625
		c-20.839,19.932-34.081,52.229-30.305,88.882c3.499,33.959,15.948,57.117,31.275,76.271c15.327,19.154,34.208,33.79,48.602,53.656
		c4.838,6.679,0.538,14.215,1.586,20.985c1.168,7.551,8.774,12.008,15.195,11.695c27.084-1.313,56.088-13.484,76.502-27.11
		c79.682-53.185,90.661-150.818,33.461-214.065c-13.463-14.886-27.202-25.62-42.83-30.163c-13.382-3.889-29.627-2.979-43.844,3.25
		c-2.694,1.181-0.319-9.476,6.954-20.578c9.81-14.971,26.857-32.181,33.372-37.569c9.301-7.69,12.089-10.093,3.46-15.62
		c-9.263-5.934-14.36,2.006-20.336,7.667c-7.027,6.659-13.614,15.562-16.621,20.688C215.427,75.865,209.009,96.716,209.438,109.46
		L209.438,109.46z"/>
	<path id="path7417" inkscape:connector-curvature="0" sodipodi:nodetypes="sssssss" d="M162.212,117.065
		c12.592-6.5,6.367,9.458,2.326,13.718c-63.663,67.112,14.497,139.373,26.501,162.73c8.626,16.786,7,41.744,1.882,41.745
		c-2.777,0.001-2.434-3.945-3.232-8.081c-4.417-22.858-24.892-35.255-39.194-51.72C108.346,226.936,100.2,149.079,162.212,117.065z"
		/>
	<path id="path7444" inkscape:connector-curvature="0" sodipodi:nodetypes="ccccccc" d="M266.788,72.638
		c10.286,23.857,35.16,6.839,63.143,9.714l9.572,13.286c-6.806-9.544-24.911-0.776-36.429-3.286c4.197,3.471,6.57,2.888,7.714,9.143
		c-7.167-5.603-19.445-7.798-33.429-8.857C263.471,85.521,263.291,78.999,266.788,72.638L266.788,72.638z"/>
	
		<path id="path7449" inkscape:connector-curvature="0" sodipodi:nodetypes="ccsssssssssssssscssssscccsscsccccssccccsccccssscsscsccsc" d="
		M239.792,58.476l-6.869,9.293c22.438,4.722,83.354,63.081,91.722,77.378c6.065,10.364,14.29,20.933,22.224,30.103
		c12.408,14.343,10.397,62.201,27.88,94.953c4.68,8.768,8.352,3.707,8.385,0.91c0.126-10.707,0.259-15.658,4.595-18.827
		c7.009-5.121,3.875-20.745,2.375-32.186c-0.858-6.552-1.17-9.354,2.424-12.323c3.983-3.292,5.303-12.646,0.81-24.851
		c-4.697-12.754-3.212-19.437-3.435-29.092c-0.15-6.518-0.422-13.198-4.851-17.981c-5.773-6.236-7.318-10.536-9.09-16.769
		c-5.02-17.655-13.452-17.707-22.022-22.425c-7.776-4.282-12.915-9.17-26.061-21.212c-12.305-11.271-25.505-13.176-44.852-9.698
		C270.413,68.016,259.49,70.515,239.792,58.476z M301.722,71.449c4-0.114,8.368,0.9,13.629,5.209
		c7.098,5.813,10.757,13.752,24.851,21.214c22.602,11.968,22.739,19.016,26.87,27.477c2.791,5.716,3.016,7.129,9.294,15.959
		c4.116,5.79,4.258,13.051,4.953,21.648c-11.242,0.197-34.235,0.296-41.133-22.556c8.95-0.219,16.301-2.332,24.864-3.536
		c-2.679-5.632-8.637-4.111-20.606-5.151c-7.211-0.626-15.279-1.042-19.093-8.486c-1.508-2.945-3.876-15.654-10.303-15.658
		c0.354,4.34,7.727,14.326,0.367,14.943c-2.079,0.175-7.979-4.952-9.761-9.489c2.274-0.137,4.286-1.866,4.849-3.231
		c-12.684-0.856-22.524-11.942-28.486-20.203c-6.751-6.525-14.624-4.877-15.153-16.668c14.229,0.435,17.2,0.454,23.437,0.102
		C294.089,72.808,297.721,71.563,301.722,71.449z M327.83,137.296c1.457,2.041,4.377,3.077,8.656,3.2
		c-0.116,1.614-0.054,3.639,0.172,5.919C333.541,145.954,330.666,141.91,327.83,137.296z M368.931,168.924
		c2.921,1.144,14.464,4.459,18.383,20.8c0.033,0.002,0.065,0.007,0.099,0.008c-0.021,0.056-0.039,0.108-0.06,0.164
		c-0.013-0.057-0.025-0.116-0.039-0.172c-12.378-6.713-20.397-2.534-24.641-7.185C358.224,177.663,360.161,165.491,368.931,168.924z
		 M376.501,191.21c6.66,1.608,7.343,7.797,6.396,13.021c-1.561,8.602-1.676,17.094,0.01,24.436
		c-11.437-0.335-18.418-11.171-17.564-26.617C365.754,194.587,369.725,189.574,376.501,191.21L376.501,191.21z M383.509,232.978
		c0.317,5.109-0.897,9.842-4.114,13.386c-4.314,4.755-5.88,2.263-6.667,0.405C367.836,235.218,376.471,232.888,383.509,232.978z"/>
	<path id="path7453" inkscape:connector-curvature="0" sodipodi:nodetypes="cccccssccsccccscccccccc" d="M184.637,57.667l0.19,1.286
		C184.946,58.288,184.874,57.819,184.637,57.667z M184.828,58.954c-0.691,3.928-8.152,14.951-29.686,11.241
		c2.338,4.825-7.038,12.219-18.541,15.697c-9.781,2.958-15.194,0.361-22.956,0.174c-5.293-0.127-15.418,3.342-16,8.572
		c11.604-1.234,20.057-1.695,29.161,0.227c-2.627,7.251-15.042,16.496-24.799,15.533c-12.367-1.221-13.738,9.698-13.738,9.698
		c5.521-4.874,11.045-3.218,16.566-3.638c-5.456,11.606,1.01,30.104,1.01,30.104l18.386-19.192
		c-16.099,12.07-12.068,0.213-12.068,0.213c3.063-14.453,17.661-17.697,24.187-27.29c3.466,3.638,3.555,6.636,2.724,10.917
		l13.142-10.858c-7.618,2.184-10.921-0.563-12.724-5.027l1.544-2.464c7.988,0.562,10.986-5.351,15.317-9.536
		c24.361-3.717,28.8-8.925,29.901-14.748L184.828,58.954z"/>
	<path id="path7419" inkscape:connector-curvature="0" sodipodi:nodetypes="cssscssssccsccsccsccccccsccssccscssssccccc" d="
		M244.64,37.464c-11.61,5.475-33.807,28.744-63.938,12.289c-16.599-9.064-30.974-17.755-69.805,11.552
		c-31.284,23.611-43.408,50.015-50.71,82.629c-2.989,13.357-7.265,31.642-13.334,34.144c-2.923,15.113-1.408,58.295,3.435,63.84
		c4.572,5.236,0.513,20.36,7.273,14.547c4.672-4.018,6.222-3.937,10.506-27.071c4.562-24.64,12.661-22.625,22.627-54.954
		c4.895-15.88,14.855-23.187,23.839-29.495c31.479-30.72,32.855-34.539,36.553-38.999c29.53-5.666,37.071-17.863,41.432-24.439
		c7.929-11.959,23.093-14.983,36.771-19.396L244.64,37.464z M150.739,53.285c12.511-0.134,24.437,1.402,33.697,6l-3.637,9.697
		c2.613-0.818,7.281,0.049,4.849,10.102c-1.561,6.451-12.766,13.383-42.831,24.244c-14.722,9.646-24.678,20.393-29.495,32.325
		L95.89,150.039c-3.72,2.509-7.175,3.735-8.817-2.258c-6.662,2.566-6.454,5.989-7.285,9.284c-2.35-0.185-4.253,1.728-5.288,4.56
		c-3.056,2.476-6.013,3.826-6.433-4.558c-0.98-19.593,4.104-37.146,9.898-37.779c3.661-29.761,15.894-25.121,26.062-45.053
		c21.748-2.628,21.903-19.555,37.981-20.608C144.933,53.435,147.852,53.315,150.739,53.285z M87.2,161.144
		c-1.397,3.44-4.277,9.656-6.875,25.014c-1.503-0.205-3.306-0.707-7.68-3.521c-8.428-5.421-11.955,3.358-9.428,10.286
		c8.799-5.694,10.829-1.028,9.491,3.259c-1.351,4.327-2.723,6.868-7.066,11.392c-4.089,4.259-12.53,1.538-12.122-9.698
		c0.293-8.077,2.462-13.632,5.455-21.011c2.103-5.184,9.988-6.158,15.019-6.85c0.003,0.017,0.004,0.033,0.008,0.05
		c0.007-0.019,0.014-0.036,0.021-0.055C76.785,163.901,82.097,161.596,87.2,161.144L87.2,161.144z"/>
</g>
<rect x="-9.104" y="-10.514" fill="none" width="370" height="364"/>
</svg>
